<svg width="22" height="22" fill="none" xmlns="http://www.w3.org/2000/svg"><path d="M11 1.833a9.167 9.167 0 00-7.7 4.208 9.167 9.167 0 0013.438 12.1A9.166 9.166 0 0011 1.833zm1.833 2.072a7.333 7.333 0 015.262 5.262 8.965 8.965 0 00-4.345 1.265 14.392 14.392 0 00-2.2-2.026 9.222 9.222 0 001.283-4.501zM11 3.667a7.242 7.242 0 01-1.045 3.73c-.138-.073-.266-.155-.403-.22a14.227 14.227 0 00-3.75-1.347A7.333 7.333 0 0111 3.667zM4.583 7.48c1.438.2 2.83.646 4.116 1.32l.12.073A7.269 7.269 0 013.666 11a7.333 7.333 0 01.916-3.52zm4.584 10.615a7.333 7.333 0 01-5.262-5.262 9.075 9.075 0 006.49-2.942 12.83 12.83 0 011.833 1.65 9.168 9.168 0 00-3.061 6.554zm1.833.238a7.333 7.333 0 012.347-5.362c.055.073.11.137.155.21a12.834 12.834 0 011.687 3.832 7.27 7.27 0 01-4.19 1.32zm5.692-2.75a14.667 14.667 0 00-1.65-3.437l-.192-.23A7.269 7.269 0 0118.333 11a7.333 7.333 0 01-1.64 4.583z" fill="#5B636B"/></svg>