<svg width="22" height="22" fill="none" xmlns="http://www.w3.org/2000/svg"><path d="M20.167 10.083a3.666 3.666 0 00-1.834-3.19 2.75 2.75 0 000-.476 2.75 2.75 0 00-2.75-2.75h-.165A2.75 2.75 0 0011 2.548a2.75 2.75 0 00-4.418 1.119h-.165a2.75 2.75 0 00-2.75 2.75 2.75 2.75 0 000 .476 3.667 3.667 0 00-.505 6.041 3.667 3.667 0 003.255 5.4h.165A2.75 2.75 0 0011 19.45a2.75 2.75 0 004.418-1.118h.165a3.667 3.667 0 003.209-5.399 3.666 3.666 0 001.375-2.85zM10.083 7.837a4.328 4.328 0 00-.623-.293.919.919 0 00-.587 1.742A1.833 1.833 0 0110.083 11v1.42a4.32 4.32 0 00-.623-.293.919.919 0 10-.587 1.742 1.834 1.834 0 011.21 1.714v1.833a.917.917 0 01-.916.917.916.916 0 01-.835-.55c.154-.09.301-.191.44-.302A.918.918 0 107.6 16.069a1.833 1.833 0 01-3.016-1.402c.005-.345.106-.682.294-.972.205.037.414.055.623.055a.917.917 0 000-1.834 1.687 1.687 0 01-.633-.119 1.833 1.833 0 01-.284-3.318c.13.12.272.227.422.32a.92.92 0 00.917-1.594.825.825 0 01-.422-.788.917.917 0 01.917-.917.696.696 0 01.192 0c.049.147.107.291.174.43a.917.917 0 001.256.34.917.917 0 00.33-1.228.972.972 0 01-.12-.459.917.917 0 011.834 0v3.254zm7.05 3.96c-.202.08-.416.12-.633.12a.917.917 0 000 1.833c.209 0 .418-.018.623-.055.188.29.29.627.294.971A1.833 1.833 0 0114.4 16.07a.919.919 0 00-1.174 1.412c.14.11.287.212.44.302a.917.917 0 01-.834.55.917.917 0 01-.916-.916v-1.834a1.834 1.834 0 011.21-1.714.919.919 0 10-.587-1.742 4.32 4.32 0 00-.623.294V11a1.834 1.834 0 011.21-1.714.918.918 0 10-.587-1.742c-.215.081-.424.18-.623.293V4.583a.917.917 0 011.833 0 .972.972 0 01-.12.459.916.916 0 101.587.916c.068-.148.126-.301.174-.458a.696.696 0 01.192 0 .917.917 0 01.917.917.917.917 0 01-.156.504.825.825 0 01-.302.284.92.92 0 10.916 1.595c.165-.09.319-.197.459-.321a1.834 1.834 0 01-.248 3.318h-.037z" fill="#5B636B"/></svg>