<svg width="22" height="22" fill="none" xmlns="http://www.w3.org/2000/svg"><path d="M17.41 19.252h-.917v-1.528a4.58 4.58 0 00-.275-1.538.882.882 0 00-.033-.078 4.564 4.564 0 00-.609-1.133l-1.283-1.712a2.77 2.77 0 01-.55-1.65v-.926a2.77 2.77 0 01.805-1.944l.602-.603a4.534 4.534 0 001.28-2.602c0-.012.008-.023.008-.037l-.003-.012c.032-.195.051-.392.058-.59V2.753h.917a.917.917 0 000-1.834H4.576a.917.917 0 100 1.834h.917V4.9a4.6 4.6 0 00.058.589l-.003.013c0 .013.006.024.007.036.13.984.58 1.898 1.28 2.602l.602.602a2.77 2.77 0 01.806 1.944v.926a2.77 2.77 0 01-.55 1.65L6.41 14.975a4.575 4.575 0 00-.61 1.133.917.917 0 00-.033.078 4.587 4.587 0 00-.275 1.538v1.528h-.917a.917.917 0 000 1.833H17.41a.916.916 0 100-1.833zM7.326 4.585V2.752h7.334v1.833H7.326zm.805 2.259a2.723 2.723 0 01-.345-.426h6.413c-.1.154-.216.296-.345.426l-.602.602a4.547 4.547 0 00-1.304 2.64h-1.91c-.13-1-.589-1.93-1.304-2.64l-.603-.602zm1.029 7.518c.53-.71.844-1.559.905-2.444h1.855a4.61 4.61 0 00.906 2.444l.917 1.223h-5.5l.917-1.223zm5.5 4.89H7.326v-1.528a2.71 2.71 0 01.025-.305h7.283c.014.1.023.203.026.305v1.528z" fill="#5B636B"/></svg>