<svg width="45" height="45" fill="none" xmlns="http://www.w3.org/2000/svg"><rect width="45" height="45" rx="12" fill="#fff"/><path d="M27.874 23.124a9.5 9.5 0 10-11.748 0 15.834 15.834 0 00-9.848 12.952 1.593 1.593 0 103.166.348 12.667 12.667 0 0125.175 0 1.583 1.583 0 001.584 1.41h.174a1.583 1.583 0 001.393-1.743 15.834 15.834 0 00-9.896-12.967zM22 22a6.333 6.333 0 110-12.667A6.333 6.333 0 0122 22z" fill="#F2B236"/><circle cx="33" cy="11" r="7" fill="#DB4E66"/><path d="M33.11 15.1c-.587 0-1.087-.093-1.5-.28-.407-.187-.713-.42-.92-.7-.2-.287-.307-.58-.32-.88 0-.06.02-.107.06-.14a.24.24 0 01.16-.06h.9c.147 0 .243.067.29.2.147.48.593.72 1.34.72.407 0 .727-.093.96-.28.233-.193.35-.467.35-.82 0-.667-.417-1-1.25-1h-1.03a.244.244 0 01-.18-.07.231.231 0 01-.07-.17v-.42a.42.42 0 01.14-.3l1.79-1.75h-2.86a.231.231 0 01-.17-.07.231.231 0 01-.07-.17v-.66c0-.073.02-.133.06-.18a.244.244 0 01.18-.07h4.29c.073 0 .133.023.18.07.047.047.07.107.07.18v.6c0 .1-.043.193-.13.28l-1.73 1.78.12.01c.64.053 1.147.247 1.52.58.38.333.57.81.57 1.43 0 .44-.12.823-.36 1.15-.233.327-.56.58-.98.76a3.62 3.62 0 01-1.41.26z" fill="#fff"/></svg>