<svg width="45" height="46" fill="none" xmlns="http://www.w3.org/2000/svg"><rect width="45" height="45" rx="12" fill="#fff"/><path d="M16.875 36.417a2.46 2.46 0 00-1.458.484 2.835 2.835 0 00-.967 1.29 3.13 3.13 0 00-.15 1.662 2.97 2.97 0 00.719 1.472c.367.402.835.675 1.344.786.51.111 1.037.054 1.517-.163.48-.218.89-.586 1.178-1.06a3.073 3.073 0 00.442-1.596 3.02 3.02 0 00-.769-2.033 2.515 2.515 0 00-1.856-.842zm18.375-5.75h-21c-.464 0-.91-.202-1.237-.562a2.013 2.013 0 01-.513-1.355c0-.508.184-.996.513-1.355.328-.36.773-.562 1.237-.562h14.86a4.98 4.98 0 003.158-1.164c.91-.752 1.573-1.807 1.89-3.006l2.774-10.638c.074-.285.087-.585.037-.876a2.01 2.01 0 00-.323-.803 1.797 1.797 0 00-.616-.561 1.627 1.627 0 00-.78-.202H13.795c-.363-1.117-1.031-2.085-1.914-2.77A4.957 4.957 0 008.86 5.75H7.25c-.464 0-.91.202-1.237.561-.329.36-.513.847-.513 1.356 0 .508.184.996.513 1.355.328.36.773.561 1.237.561h1.612c.38.002.75.138 1.053.388.303.25.524.602.63 1.002l.271 1.044v.01l2.872 11.006c-1.337.156-2.567.868-3.439 1.99-.871 1.12-1.317 2.565-1.245 4.035.072 1.47.656 2.854 1.632 3.867.976 1.012 2.27 1.576 3.614 1.575h21c.464 0 .91-.202 1.237-.561.329-.36.513-.847.513-1.356a2.01 2.01 0 00-.513-1.355 1.677 1.677 0 00-1.237-.561zm-2.32-17.25l-2.136 8.191c-.105.4-.326.753-.63 1.004a1.66 1.66 0 01-1.055.388H17.32l-.446-1.71-2.053-7.873h18.11zm-2.055 23a2.46 2.46 0 00-1.458.484 2.835 2.835 0 00-.967 1.29 3.13 3.13 0 00-.15 1.662 2.97 2.97 0 00.719 1.472c.367.402.835.675 1.344.786.51.111 1.037.054 1.517-.163.48-.218.89-.586 1.178-1.06a3.073 3.073 0 00.442-1.596 3.02 3.02 0 00-.769-2.033 2.515 2.515 0 00-1.856-.842z" fill="#F2B236"/><circle cx="34" cy="11" r="7" fill="#DB4E66"/><path d="M34.11 15.1c-.587 0-1.087-.093-1.5-.28-.407-.187-.713-.42-.92-.7-.2-.287-.307-.58-.32-.88 0-.06.02-.107.06-.14a.24.24 0 01.16-.06h.9c.147 0 .243.067.29.2.147.48.593.72 1.34.72.407 0 .727-.093.96-.28.233-.193.35-.467.35-.82 0-.667-.417-1-1.25-1h-1.03a.244.244 0 01-.18-.07.231.231 0 01-.07-.17v-.42a.42.42 0 01.14-.3l1.79-1.75h-2.86a.231.231 0 01-.17-.07.231.231 0 01-.07-.17v-.66c0-.073.02-.133.06-.18a.244.244 0 01.18-.07h4.29c.073 0 .133.023.18.07.047.047.07.107.07.18v.6c0 .1-.043.193-.13.28l-1.73 1.78.12.01c.64.053 1.147.247 1.52.58.38.333.57.81.57 1.43 0 .44-.12.823-.36 1.15-.233.327-.56.58-.98.76a3.62 3.62 0 01-1.41.26z" fill="#fff"/></svg>