<svg width="50" height="50" fill="none" xmlns="http://www.w3.org/2000/svg"><rect width="49.214" height="49.214" rx="12" fill="#90C1BF"/><path d="M24.607 15.522a9.086 9.086 0 109.086 9.085 9.096 9.096 0 00-9.086-9.085zm0 15.142a6.057 6.057 0 116.057-6.057 6.064 6.064 0 01-6.057 6.057zM32.936 5.68H16.279a10.612 10.612 0 00-10.6 10.6v16.657a10.612 10.612 0 0010.6 10.6h16.657a10.612 10.612 0 0010.6-10.6V16.279a10.613 10.613 0 00-10.6-10.6zm7.571 27.257a7.58 7.58 0 01-7.571 7.571H16.279a7.58 7.58 0 01-7.572-7.571V16.279a7.58 7.58 0 017.572-7.572h16.657a7.58 7.58 0 017.571 7.572v16.657zm-3.785-18.172a2.272 2.272 0 11-4.544 0 2.272 2.272 0 014.544 0z" fill="#fff"/></svg>