<svg width="40" height="38" fill="none" xmlns="http://www.w3.org/2000/svg"><path fill-rule="evenodd" clip-rule="evenodd" d="M40 17.406c0 9.613-8.955 17.405-20 17.405a22.765 22.765 0 01-5.867-.76c-1.46.735-4.813 2.148-10.453 3.068-.5.08-.88-.438-.683-.9.885-2.08 1.686-4.849 1.926-7.375C1.86 25.785 0 21.782 0 17.406 0 7.793 8.955 0 20 0s20 7.793 20 17.406zm-22.015-3.069c.218.309.407.647.567.997 1.07 2.358.983 5.91-2.354 9.215a1.118 1.118 0 01-1.53.025 1.008 1.008 0 01-.257-1.128.992.992 0 01.229-.339c1.047-1.034 1.68-2.066 2.023-3.033-.673.41-1.47.646-2.325.646-2.4 0-4.338-1.855-4.338-4.142 0-2.288 1.94-4.145 4.335-4.145.677 0 1.32.149 1.89.412l.02.01a3.67 3.67 0 011.172.806c.213.206.403.433.568.676zm9.515 5.737c-.672.41-1.47.646-2.325.646-2.395 0-4.338-1.855-4.338-4.142 0-2.288 1.943-4.145 4.335-4.145.678 0 1.32.149 1.89.412l.02.01a3.64 3.64 0 011.173.806c.213.206.402.433.568.676.217.309.41.647.57.997 1.07 2.358.98 5.91-2.355 9.215a1.118 1.118 0 01-1.533.025 1.008 1.008 0 01-.257-1.128.98.98 0 01.23-.339c1.05-1.034 1.68-2.066 2.024-3.033H27.5z" fill="#222528"/></svg>