<svg width="30" height="30" fill="none" xmlns="http://www.w3.org/2000/svg"><path d="M27.5 12.088a1.25 1.25 0 00-1.075-.838l-7.113-1.037-3.187-6.463a1.25 1.25 0 00-2.25 0l-3.188 6.45-7.112 1.05a1.25 1.25 0 00-1.013.85 1.25 1.25 0 00.313 1.25l5.162 5-1.25 7.1a1.25 1.25 0 001.838 1.35L15 23.462l6.375 3.338c.175.099.373.15.575.15.265 0 .523-.082.737-.238a1.25 1.25 0 00.5-1.25l-1.25-7.1 5.163-5a1.25 1.25 0 00.4-1.274zm-7.688 5a1.25 1.25 0 00-.362 1.1l.9 5.25-4.7-2.5a1.324 1.324 0 00-1.175 0l-4.7 2.5.9-5.25a1.25 1.25 0 00-.363-1.1l-3.75-3.75 5.263-.763a1.25 1.25 0 00.95-.688L15 7.125l2.35 4.775a1.25 1.25 0 00.95.688l5.262.762-3.75 3.737z" fill="#F2B236"/></svg>