<svg width="50" height="50" fill="none" xmlns="http://www.w3.org/2000/svg"><rect x=".429" width="49.214" height="49.214" rx="12" fill="#90C1BF"/><g clip-path="url(#clip0)"><path d="M24.087 6.631c-3.038.037-9.57.536-13.222 3.887-2.718 2.693-3.667 6.674-3.778 11.597-.092 4.904-.203 14.116 8.675 16.624v3.82s-.055 1.528.955 1.842c1.245.394 1.953-.782 3.136-2.046l2.207-2.495c6.075.505 10.727-.659 11.263-.832 1.233-.393 8.176-1.28 9.31-10.493 1.165-9.514-.566-15.508-3.69-18.22h-.02c-.942-.868-4.731-3.63-13.197-3.66 0 0-.628-.043-1.639-.025v.001zm.105 2.675c.862-.006 1.386.03 1.386.03 7.166.02 10.586 2.176 11.393 2.903 2.63 2.254 3.987 7.659 2.994 15.601-.943 7.702-6.574 8.19-7.617 8.522-.443.142-4.541 1.152-9.704.82 0 0-3.845 4.64-5.047 5.834-.19.21-.413.271-.555.24-.203-.05-.265-.301-.253-.647l.037-6.34c-7.53-2.081-7.086-9.938-7.006-14.042.092-4.104.862-7.461 3.155-9.735C16.062 9.7 21.608 9.325 24.19 9.306h.003zm.567 4.103a.47.47 0 00-.474.468c0 .265.215.474.474.474a8.888 8.888 0 016.36 2.508c1.718 1.67 2.556 3.913 2.588 6.846 0 .259.209.474.474.474v-.019a.473.473 0 00.474-.468 10.19 10.19 0 00-2.859-7.512c-1.873-1.83-4.246-2.773-7.037-2.773v.002zm-6.235 1.084a1.48 1.48 0 00-.968.19h-.025a7.425 7.425 0 00-1.805 1.486c-.432.499-.666 1.004-.728 1.49-.037.29-.012.58.075.857l.03.019a21.32 21.32 0 001.898 4.098c1 1.818 2.23 3.5 3.66 5.003l.043.061.067.05.043.05.05.042a24.453 24.453 0 005.016 3.678c2.082 1.134 3.345 1.67 4.104 1.892v.012c.222.067.424.098.628.098a2.9 2.9 0 001.738-.745 7.174 7.174 0 001.467-1.812v-.011c.363-.684.24-1.331-.284-1.769a21.85 21.85 0 00-3.39-2.433c-.806-.438-1.626-.173-1.959.27l-.708.894c-.364.443-1.024.382-1.024.382l-.019.012c-4.922-1.258-6.235-6.242-6.235-6.242s-.062-.678.393-1.023l.888-.715c.425-.345.72-1.164.265-1.972a21.292 21.292 0 00-2.428-3.39 1.349 1.349 0 00-.795-.474l.003.002zm7.054 1.406c-.628 0-.628.949.006.949a5.946 5.946 0 014.177 1.81 5.514 5.514 0 011.418 4.055.476.476 0 00.474.469l.019.024a.478.478 0 00.474-.474c.043-1.88-.542-3.457-1.688-4.72-1.152-1.264-2.76-1.972-4.813-2.113h-.067zm.777 2.55c-.647-.018-.672.95-.03.968 1.559.08 2.316.869 2.415 2.49a.47.47 0 00.469.462h.019a.478.478 0 00.455-.505c-.111-2.113-1.263-3.303-3.309-3.413h-.019v-.002z" fill="#fff"/></g><defs><clipPath id="clip0"><path fill="#fff" transform="translate(6.107 6.625)" d="M0 0h37.857v37.857H0z"/></clipPath></defs></svg>