<svg width="50" height="50" fill="none" xmlns="http://www.w3.org/2000/svg"><rect x=".214" width="49.214" height="49.214" rx="12" fill="#90C1BF"/><path fill-rule="evenodd" clip-rule="evenodd" d="M37.563 11.181a17.763 17.763 0 00-5.806-4.08 17.09 17.09 0 00-6.86-1.422c-9.87 0-17.904 8.415-17.908 18.759 0 3.306.824 6.533 2.39 9.379l-2.54 9.719 9.493-2.61a17.275 17.275 0 008.557 2.284h.008c9.868 0 17.903-8.415 17.907-18.76a19.43 19.43 0 00-1.353-7.184 18.734 18.734 0 00-3.888-6.085zM24.897 40.044h-.006c-2.666 0-5.282-.751-7.575-2.175l-.543-.339-5.633 1.548 1.502-5.752-.353-.59a16.117 16.117 0 01-2.276-8.298c.004-8.597 6.68-15.591 14.89-15.591a14.205 14.205 0 015.698 1.182 14.764 14.764 0 014.824 3.39 15.573 15.573 0 013.231 5.06 16.15 16.15 0 011.124 5.972c-.004 8.597-6.68 15.593-14.883 15.593zm8.165-11.68c-.45-.236-2.647-1.368-3.058-1.525-.41-.157-.707-.234-1.006.234-.299.468-1.157 1.524-1.418 1.837-.261.314-.522.351-.97.117-.446-.234-1.888-.73-3.598-2.326-1.33-1.243-2.228-2.777-2.49-3.247-.26-.47-.027-.723.198-.957.202-.21.447-.548.67-.822.224-.273.298-.468.447-.781.15-.313.076-.587-.038-.821-.111-.236-1.007-2.544-1.38-3.482-.36-.909-.73-.788-1.005-.8a18.36 18.36 0 00-.856-.017c-.227.006-.45.061-.656.162a1.66 1.66 0 00-.539.423c-.41.47-1.566 1.603-1.566 3.91 0 2.307 1.604 4.537 1.828 4.85.223.314 3.155 5.047 7.643 7.078a25.72 25.72 0 002.552.989c1.07.357 2.046.305 2.818.185.86-.133 2.647-1.132 3.02-2.227.373-1.095.373-2.033.261-2.23-.111-.196-.413-.315-.857-.55z" fill="#fff"/></svg>